<svg xmlns="http://www.w3.org/2000/svg" width="61.17" height="72.29" viewBox="0 0 61.17 72.29">
	<style type="text/css">
		.st0{fill:#1a150f;}
	</style>
	<path class="st0" d="M4.47,23.41C3.23,23.41 2.17,23.85 1.3,24.71C0.43,25.58 0,26.63 0,27.84L0,46.53C0,47.77 0.43,48.83 1.3,49.7C2.17,50.56 3.23,51 4.47,51C5.71,51 6.76,50.56 7.62,49.7C8.47,48.83 8.9,47.77 8.9,46.53L8.9,27.84C8.9,26.63 8.47,25.58 7.6,24.71C6.73,23.85 5.69,23.41 4.47,23.41"/>
	<path class="st0" d="M40.92,14.92C40.6,15.25 40.21,15.42 39.75,15.42C39.28,15.42 38.89,15.25 38.55,14.92C38.22,14.58 38.05,14.19 38.05,13.73C38.05,13.26 38.22,12.86 38.55,12.53C38.89,12.2 39.28,12.03 39.75,12.03C40.21,12.03 40.6,12.2 40.92,12.53C41.24,12.86 41.4,13.26 41.4,13.73C41.4,14.19 41.24,14.58 40.92,14.92M22.61,14.92C22.28,15.25 21.88,15.42 21.41,15.42C20.95,15.42 20.56,15.25 20.24,14.92C19.92,14.58 19.76,14.19 19.76,13.73C19.76,13.26 19.92,12.86 20.24,12.53C20.56,12.2 20.95,12.03 21.41,12.03C21.88,12.03 22.28,12.2 22.61,12.53C22.94,12.86 23.11,13.26 23.11,13.73C23.11,14.19 22.94,14.58 22.61,14.92M40.44,6.64L43.53,0.95C43.73,0.57 43.66,0.28 43.31,0.08C42.93,-0.08 42.64,0 42.44,0.34L39.31,6.08C36.56,4.86 33.65,4.25 30.58,4.25C27.51,4.25 24.6,4.86 21.85,6.08L18.72,0.34C18.52,0 18.23,-0.08 17.85,0.08C17.5,0.29 17.43,0.57 17.64,0.95L20.72,6.64C17.59,8.24 15.1,10.46 13.25,13.31C11.39,16.17 10.47,19.28 10.47,22.67L50.65,22.67C50.65,19.28 49.72,16.17 47.87,13.31C46.02,10.46 43.54,8.24 40.44,6.64"/>
	<path class="st0" d="M10.64,53.17C10.64,54.51 11.1,55.64 12.03,56.56C12.96,57.49 14.09,57.95 15.42,57.95L18.63,57.95L18.68,67.81C18.68,69.06 19.11,70.12 19.98,70.99C20.85,71.85 21.89,72.29 23.11,72.29C24.35,72.29 25.41,71.85 26.28,70.99C27.15,70.12 27.58,69.06 27.58,67.81L27.58,57.95L33.58,57.95L33.58,67.81C33.58,69.06 34.01,70.12 34.88,70.99C35.75,71.85 36.81,72.29 38.05,72.29C39.3,72.29 40.35,71.85 41.22,70.99C42.09,70.12 42.53,69.06 42.53,67.81L42.53,57.95L45.78,57.95C47.09,57.95 48.2,57.49 49.13,56.56C50.06,55.64 50.52,54.51 50.52,53.17L50.52,24.24L10.64,24.24Z"/>
	<path class="st0" d="M56.69,23.41C55.47,23.41 54.43,23.84 53.56,24.69C52.69,25.55 52.26,26.6 52.26,27.84L52.26,46.53C52.26,47.77 52.69,48.83 53.56,49.7C54.43,50.56 55.47,51 56.69,51C57.94,51 59,50.56 59.86,49.7C60.73,48.83 61.17,47.77 61.17,46.53L61.17,27.84C61.17,26.6 60.73,25.55 59.86,24.69C59,23.84 57.94,23.41 56.69,23.41"/>
</svg>