<svg xmlns="http://www.w3.org/2000/svg"
 xmlns:xlink="http://www.w3.org/1999/xlink"
 width="50px" height="43px"  viewBox="0 0 50 43">
<path fill-rule="evenodd"  fill="#ffffff"
 d="M21.961792,12.38784 C15.885803,12.557892 11.384949,17.26722 11.384949,23.373856 C11.384949,27.954327 15.06134,31.618309 19.665436,31.618309 C19.665436,31.618309 21.10727,31.618309 21.10727,31.618309 C24.263885,31.618309 26.822784,29.046143 26.822784,25.873524 C26.822784,25.873524 26.822784,25.873524 26.822784,25.873524 C26.822784,23.972656 25.277618,22.434296 23.380646,22.458027 C22.751099,22.466263 22.152924,22.740784 21.721375,23.201828 C21.721375,23.201828 21.103607,23.861595 21.103607,23.861595 C20.540771,24.462372 19.602264,24.58892 18.950165,24.087341 C18.200592,23.510952 18.120117,22.427048 18.746124,21.74619 C18.746124,21.74619 19.149292,21.30788 19.149292,21.30788 C20.264526,20.094463 21.833282,19.404705 23.476654,19.404705 C23.476654,19.404705 23.476776,19.404705 23.476776,19.404705 C27.002472,19.404705 29.860748,22.2771 29.860748,25.820797 C29.860748,25.820797 29.860748,25.820797 29.860748,25.820797 C29.860748,30.709072 25.918243,34.67163 21.054962,34.67163 C21.054962,34.67163 19.677002,34.67163 19.677002,34.67163 C13.388672,34.67163 8.291138,29.54805 8.291138,23.228191 C8.291138,23.228191 8.291138,23.228191 8.291138,23.228191 C8.291138,15.551231 14.482727,9.328262 22.120422,9.328262 C22.120422,9.328262 41.7088,9.328262 41.7088,9.328262 C45.735657,9.328262 48.99994,6.047222 48.99994,1.9999676 C48.99994,1.9999676 22.20111,1.9999676 22.20111,1.9999676 C10.492065,1.9999676 1.0,11.540558 1.0,23.309265 C1.0,23.309265 1.0,23.309265 1.0,23.309265 C1.0,33.631886 9.325806,41.999924 19.596313,41.999924 C19.596313,41.999924 21.144226,41.999924 21.144226,41.999924 C29.81726,41.999924 36.848053,34.933624 36.848053,26.21593 C36.848053,26.21593 36.848053,25.409184 36.848053,25.409184 C36.848053,23.140202 36.27002,20.931202 35.255493,19.099209 C35.255493,19.099209 37.151886,19.099209 37.151886,19.099209 C40.84308,19.099209 43.83545,16.091698 43.83545,12.38158 C43.83545,12.38158 43.83545,12.38158 43.83545,12.38158 C43.83545,12.38158 21.961792,12.38784 21.961792,12.38784 Z"/>
</svg>