<svg xmlns="http://www.w3.org/2000/svg" width="298.01" height="365.55" viewBox="0 0 298.01 365.55">
	<style type="text/css">
		.st0{fill:#1a150f;fill-rule:evenodd;}
	</style>
	<path class="st0" d="M219.39,0L221.96,0C224.01,25.78 214.21,45.06 202.22,59.01C190.54,72.81 174.46,86.28 148.44,84.25C146.71,58.85 156.61,40.99 168.51,27.02C179.56,14.1 199.87,2.58 219.39,0"/>
	<path class="st0" d="M298.01,268.29L298.01,269.07C290.7,291.17 280.29,310.15 267.59,327.71C255.99,343.7 241.72,365.17 216.32,365.17C194.45,365.17 179.88,351.06 157.39,350.66C133.55,350.28 120.47,362.5 98.76,365.55L91.31,365.55C75.32,363.2 62.46,350.58 53.07,339.22C25.4,305.51 3.99,262.01 0,206.37L0,189.98C1.72,150.17 21,117.72 46.79,102.05C60.35,93.72 79.01,86.6 99.78,89.73C108.71,91.15 117.8,94.2 125.81,97.17C133.33,100.16 142.8,105.26 151.73,105.02C157.85,104.86 163.89,101.65 170.01,99.46C187.87,92.94 205.42,85.58 228.64,89.03C256.45,93.26 276.22,105.56 288.36,124.68C264.84,139.67 246.26,162.25 249.41,200.73C252.22,235.77 272.6,256.21 298.01,268.29"/>
</svg>